<svg version="1.1" id="Layer_1" xmlns="http://www.w3.org/2000/svg" xmlns:xlink="http://www.w3.org/1999/xlink" x="0px" y="0px"
	 width="100%" viewBox="0 0 1024 1024" enable-background="new 0 0 1024 1024" xml:space="preserve">
<path fill="#FEFFFF" opacity="1.000000" stroke="none" 
	d="
M575.000000,1025.000000 
	C383.333344,1025.000000 192.166672,1025.000000 1.000000,1025.000000 
	C1.000000,683.666687 1.000000,342.333344 1.000000,1.000000 
	C342.333344,1.000000 683.666687,1.000000 1025.000000,1.000000 
	C1025.000000,342.333344 1025.000000,683.666687 1025.000000,1025.000000 
	C875.166687,1025.000000 725.333313,1025.000000 575.000000,1025.000000 
M748.500000,594.564697 
	C792.440796,594.564697 836.381531,594.564697 880.501587,594.564697 
	C880.501587,539.935425 880.501587,485.887665 880.501587,431.669006 
	C635.305603,431.669006 390.463776,431.669006 145.388809,431.669006 
	C145.388809,486.023712 145.388809,540.068237 145.388809,594.564514 
	C346.303711,594.564514 546.901855,594.564514 748.500000,594.564697 
z"/>
<path fill="#7E8182" opacity="1.000000" stroke="none" 
	d="
M748.000000,594.564575 
	C546.901855,594.564514 346.303711,594.564514 145.388809,594.564514 
	C145.388809,540.068237 145.388809,486.023712 145.388809,431.669006 
	C390.463776,431.669006 635.305603,431.669006 880.501587,431.669006 
	C880.501587,485.887665 880.501587,539.935425 880.501587,594.564697 
	C836.381531,594.564697 792.440796,594.564697 748.000000,594.564575 
M148.450272,585.431824 
	C148.568481,587.183167 148.686691,588.934448 148.807831,590.729126 
	C391.916565,590.729126 634.468872,590.729126 876.992676,590.729126 
	C876.992676,538.588684 876.992676,486.872589 876.992676,435.152313 
	C633.967529,435.152313 391.403290,435.152313 148.442429,435.152313 
	C148.442429,485.167053 148.442429,534.807434 148.450272,585.431824 
z"/>
<path fill="#FDFEFE" opacity="1.000000" stroke="none" 
	d="
M148.446350,584.939819 
	C148.442429,534.807434 148.442429,485.167053 148.442429,435.152313 
	C391.403290,435.152313 633.967529,435.152313 876.992676,435.152313 
	C876.992676,486.872589 876.992676,538.588684 876.992676,590.729126 
	C634.468872,590.729126 391.916565,590.729126 148.807831,590.729126 
	C148.686691,588.934448 148.568481,587.183167 148.446350,584.939819 
M289.987152,490.071167 
	C289.987152,481.847229 289.987152,473.623291 289.987152,465.241486 
	C283.319366,465.241486 277.509766,465.417999 271.718567,465.167816 
	C268.772369,465.040558 267.233154,466.189758 265.866180,468.633911 
	C259.951843,479.208740 253.893494,489.703339 247.850891,500.206024 
	C245.087448,505.009155 242.239227,509.763458 239.223114,514.890625 
	C237.938904,513.224121 237.055237,512.077332 236.030594,510.232513 
	C234.749924,508.524933 233.254349,506.937317 232.223297,505.090363 
	C225.268280,492.631836 218.448837,480.097504 211.459412,467.658539 
	C210.836884,466.550659 209.341599,465.263580 208.209396,465.222443 
	C201.782547,464.988953 195.342834,465.109375 188.649170,465.109375 
	C188.649170,494.235382 188.649170,522.795105 188.649170,551.509033 
	C196.190704,551.509033 203.539352,551.509033 211.358612,551.509033 
	C211.358612,536.960632 211.358612,522.799866 211.358612,507.726044 
	C215.123154,513.791260 218.338913,518.972351 221.753128,524.855347 
	C224.738586,530.046753 227.666855,535.272156 230.725662,540.419983 
	C233.760254,545.526917 243.686478,545.456116 246.731827,540.237549 
	C252.684296,530.037048 258.477142,519.743530 264.365997,509.505737 
	C264.940125,508.507629 265.723633,507.629974 267.192810,505.631500 
	C267.192810,509.679260 267.192810,512.334778 267.023743,515.915405 
	C267.023743,527.817993 267.023743,539.720581 267.023743,551.591064 
	C275.075470,551.591064 282.319946,551.591064 289.818939,551.591064 
	C289.818939,531.173584 289.818939,511.083923 289.987152,490.071167 
M429.840302,500.244171 
	C429.840302,488.672241 429.840302,477.100342 429.840302,465.484253 
	C421.055725,465.484253 413.142731,465.484253 405.222229,465.484253 
	C405.222229,494.402557 405.222229,523.040222 405.222229,551.538086 
	C413.598328,551.538086 421.501312,551.538086 429.857483,551.538086 
	C429.857483,547.054260 429.578857,542.901611 429.937103,538.804565 
	C430.284119,534.836243 431.286163,530.925232 432.429138,526.466064 
	C434.751587,524.393799 437.074036,522.321594 439.650879,520.022400 
	C447.024231,529.786316 454.306885,539.481873 461.673035,549.113586 
	C462.516327,550.216248 463.807678,551.725098 464.922852,551.752319 
	C473.793823,551.969116 482.672424,551.873108 492.491455,551.873108 
	C480.128265,535.276184 468.450836,519.599915 456.727112,503.861481 
	C468.027771,490.972076 478.988647,478.470245 490.549683,465.283875 
	C487.254303,465.283875 485.263275,465.238037 483.274963,465.292236 
	C476.496399,465.476929 468.849976,463.814941 463.184082,466.430511 
	C457.470001,469.068268 453.766418,476.006897 449.101959,480.986206 
	C442.753357,487.763428 436.328888,494.469543 429.840302,500.244171 
M365.330536,535.653809 
	C367.134979,540.103149 368.811218,544.611877 370.825989,548.963867 
	C371.393097,550.188904 372.926392,551.761841 374.062286,551.799622 
	C381.632019,552.051514 389.214142,551.930298 397.701691,551.930298 
	C394.601746,544.658325 391.940399,538.115234 389.035675,531.682007 
	C385.851990,524.630981 382.443756,517.681335 379.195496,509.940338 
	C373.073669,495.741699 367.019714,481.512726 360.704865,467.400482 
	C360.183990,466.236420 357.919556,465.295624 356.419708,465.225555 
	C350.767090,464.961456 345.082581,465.328094 339.436188,465.003113 
	C336.041962,464.807739 334.457947,466.008270 333.150970,469.084869 
	C323.459198,491.899475 313.577606,514.633423 303.769714,537.398804 
	C301.761963,542.059082 299.813477,546.744934 297.610931,551.955322 
	C305.613373,551.955322 312.773743,552.098022 319.918518,551.828186 
	C321.258057,551.777588 323.137085,550.359192 323.732697,549.087463 
	C325.836487,544.595581 327.490997,539.893311 329.416870,535.014893 
	C341.370026,535.014893 353.183838,535.014893 365.330536,535.653809 
M629.312683,499.757416 
	C627.032837,499.637024 624.752991,499.516602 622.568176,499.401184 
	C621.186157,489.681274 624.402405,487.248566 634.853333,489.875671 
	C635.452454,488.446106 636.068481,486.976227 636.739807,485.374359 
	C632.523376,482.325867 628.040466,482.146484 623.697510,483.494629 
	C615.855835,485.928955 615.501953,492.981537 615.291138,499.596191 
	C612.513672,499.802246 610.436890,499.956329 608.040283,500.134125 
	C608.244385,502.002808 608.398438,503.412933 608.555542,504.851227 
	C611.027893,505.032867 613.134888,505.187653 615.706177,505.376556 
	C615.706177,517.006165 615.706177,528.375793 615.706177,539.664062 
	C618.107483,539.664062 619.985535,539.664062 622.256287,539.664062 
	C622.256287,528.008118 622.256287,516.758118 622.256287,505.245209 
	C629.053162,505.245209 635.440002,505.245209 642.391541,505.245209 
	C642.391541,513.217224 642.258850,520.842529 642.441772,528.460266 
	C642.549744,532.960083 643.904358,537.093201 648.428894,539.181335 
	C653.474365,541.509888 658.340576,541.064880 663.319824,537.777161 
	C662.564270,536.156860 661.901062,534.734558 661.256592,533.352539 
	C654.002258,535.781860 649.609253,534.731140 649.276611,529.951416 
	C648.705017,521.738770 649.118530,513.457520 649.118530,504.729706 
	C653.412292,504.729706 657.010559,504.729706 660.953186,504.729706 
	C660.802185,502.794952 660.691711,501.380005 660.536621,499.393066 
	C656.656311,499.393066 653.088013,499.393066 649.304199,499.393066 
	C649.089111,496.223907 648.913269,493.632935 648.732971,490.976044 
	C646.610229,490.976044 644.739929,490.976044 642.919983,490.976044 
	C641.987183,499.428009 641.987122,499.424988 633.688049,499.560638 
	C632.523865,499.579651 631.360413,499.645630 629.312683,499.757416 
M707.240662,513.184143 
	C706.012146,509.914642 705.069885,506.492828 703.443298,503.435120 
	C702.528992,501.716400 700.628601,499.818146 698.895630,499.497681 
	C697.819946,499.298767 695.614380,501.660309 694.967712,503.289978 
	C691.716370,511.483643 688.828796,519.821167 685.764343,528.089905 
	C685.359375,529.182556 684.672424,530.170715 683.725891,531.934265 
	C680.033875,521.801147 676.518372,512.645935 673.398804,503.357727 
	C672.072144,499.407715 669.926147,498.547150 665.832458,500.053253 
	C670.177551,511.960754 674.479370,523.786865 678.815674,535.600403 
	C679.645569,537.861206 680.015991,540.155334 683.583313,540.255615 
	C687.468567,540.364929 687.822205,537.795288 688.747314,535.390381 
	C692.003723,526.924927 695.224426,518.445801 698.884277,508.856750 
	C700.168701,511.702209 701.040222,513.412842 701.727600,515.194580 
	C704.481628,522.333008 707.023193,529.559631 710.019287,536.593567 
	C710.667664,538.115723 712.710815,539.462402 714.399963,540.027283 
	C717.134705,540.941833 718.469910,539.170654 719.342773,536.578552 
	C721.785095,529.325806 724.467957,522.153809 727.070740,514.955383 
	C728.899292,509.898254 730.752197,504.849945 732.595459,499.794342 
	C727.934875,498.240570 726.256287,500.102386 725.051086,503.709229 
	C721.911621,513.105103 718.435242,522.388367 714.692993,532.833801 
	C712.002991,525.698853 709.777588,519.796265 707.240662,513.184143 
M520.059265,491.703705 
	C514.296204,501.500824 516.933777,509.665894 527.447632,513.623535 
	C532.570618,515.551880 537.969116,516.734985 543.170593,518.471985 
	C547.209534,519.820801 550.521545,522.161377 549.958557,527.066650 
	C549.437073,531.609985 545.923767,533.214478 541.980164,534.125183 
	C533.446777,536.095947 525.909607,533.423401 518.487122,528.735168 
	C517.583618,530.519043 516.795898,532.074341 515.833923,533.973816 
	C525.162842,540.766357 535.037109,542.639221 545.748230,539.324829 
	C552.616150,537.199646 556.595947,532.162720 556.853088,526.073730 
	C557.115112,519.868347 554.175171,515.857239 546.630127,513.009216 
	C541.348572,511.015533 535.820374,509.680817 530.513367,507.747070 
	C526.724182,506.366333 523.567444,503.959900 524.179443,499.310822 
	C524.788025,494.687683 528.137451,492.030731 532.421326,492.013031 
	C539.065125,491.985626 545.712891,492.909668 553.104187,493.488708 
	C553.214661,493.221893 553.894714,491.579834 554.547119,490.004333 
	C544.484070,482.842865 529.196350,483.437012 520.059265,491.703705 
M736.660156,527.098145 
	C736.070984,532.056885 737.724365,536.039062 742.180603,538.417053 
	C749.888367,542.530151 757.240112,541.286133 763.118958,537.054321 
	C765.764465,538.467163 767.828491,539.569458 770.865540,541.191406 
	C770.865540,530.368469 771.153076,521.226379 770.751892,512.114563 
	C770.530334,507.082184 768.077942,502.773041 762.999817,500.779083 
	C754.044739,497.262848 745.818542,498.926758 737.858704,504.389252 
	C738.865479,506.111664 739.685181,507.514038 740.588806,509.059967 
	C747.066040,505.365204 753.579407,502.853027 760.526855,506.843079 
	C764.172607,508.937012 764.631287,512.592590 764.062561,516.371094 
	C763.615967,516.609924 763.327454,516.895142 763.031921,516.902527 
	C758.869263,517.006653 754.701721,516.985413 750.542969,517.167358 
	C742.675842,517.511475 738.979065,520.042297 736.660156,527.098145 
M812.884583,512.725281 
	C809.999695,523.878540 813.630249,533.612976 822.337585,538.071350 
	C831.640198,542.834534 842.483826,541.101868 848.921204,533.589478 
	C847.799988,532.356934 846.651001,531.093750 845.421387,529.742004 
	C839.019775,535.040833 832.372437,536.676453 825.271606,532.604126 
	C821.496033,530.438904 818.764221,527.235413 818.852051,521.950928 
	C829.931274,521.950928 840.513611,521.950928 851.017151,521.950928 
	C852.796814,511.708557 847.423340,502.904175 837.909729,499.974121 
	C827.715088,496.834320 817.804932,501.620941 812.884583,512.725281 
M564.443359,511.224762 
	C564.071777,512.325562 563.596436,513.403198 563.344849,514.530701 
	C561.010864,524.991821 565.869995,535.012756 575.112244,538.878235 
	C584.569641,542.833679 595.469482,539.878601 600.908203,531.884583 
	C607.710815,521.885864 605.305664,508.601257 595.584534,502.479492 
	C584.686523,495.616608 571.067017,499.173615 564.443359,511.224762 
M785.287842,536.213745 
	C784.894348,541.947632 788.596924,539.915710 791.843079,539.809875 
	C791.843079,533.686890 791.832092,527.895996 791.845337,522.105164 
	C791.873291,509.927979 794.461670,506.873932 806.460815,505.002228 
	C806.460815,503.138580 806.460815,501.260254 806.460815,497.826385 
	C801.054321,500.010742 796.493713,501.853333 791.931152,503.696716 
	C791.557312,502.407013 791.116333,500.885956 790.613098,499.149750 
	C788.762939,499.298431 787.175781,499.425964 785.284180,499.577972 
	C785.284180,511.713196 785.284180,523.493164 785.287842,536.213745 
z"/>
<path fill="#2167AF" opacity="1.000000" stroke="none" 
	d="
M364.997650,535.014893 
	C353.183838,535.014893 341.370026,535.014893 329.416870,535.014893 
	C327.490997,539.893311 325.836487,544.595581 323.732697,549.087463 
	C323.137085,550.359192 321.258057,551.777588 319.918518,551.828186 
	C312.773743,552.098022 305.613373,551.955322 297.610931,551.955322 
	C299.813477,546.744934 301.761963,542.059082 303.769714,537.398804 
	C313.577606,514.633423 323.459198,491.899475 333.150970,469.084869 
	C334.457947,466.008270 336.041962,464.807739 339.436188,465.003113 
	C345.082581,465.328094 350.767090,464.961456 356.419708,465.225555 
	C357.919556,465.295624 360.183990,466.236420 360.704865,467.400482 
	C367.019714,481.512726 373.073669,495.741699 379.013550,510.645203 
	C376.672485,514.274353 374.954346,517.717834 372.257233,520.008728 
	C367.484253,524.062866 365.113647,528.896790 364.997650,535.014893 
M349.937347,495.636047 
	C349.224976,493.897125 348.512634,492.158203 347.499115,489.684143 
	C343.881714,499.262665 340.588715,507.982208 337.161377,517.057495 
	C344.442200,517.057495 351.023529,517.057495 358.109283,517.057495 
	C355.362091,509.910248 352.758148,503.135651 349.937347,495.636047 
z"/>
<path fill="#392B8A" opacity="1.000000" stroke="none" 
	d="
M221.554657,524.153442 
	C218.338913,518.972351 215.123154,513.791260 211.358612,507.726044 
	C211.358612,522.799866 211.358612,536.960632 211.358612,551.509033 
	C203.539352,551.509033 196.190704,551.509033 188.649170,551.509033 
	C188.649170,522.795105 188.649170,494.235382 188.649170,465.109375 
	C195.342834,465.109375 201.782547,464.988953 208.209396,465.222443 
	C209.341599,465.263580 210.836884,466.550659 211.459412,467.658539 
	C218.448837,480.097504 225.268280,492.631836 232.223297,505.090363 
	C233.254349,506.937317 234.749924,508.524933 235.771500,510.719543 
	C230.919220,513.424988 226.836746,515.968994 225.714783,521.646545 
	C225.503738,522.714539 223.000275,523.329468 221.554657,524.153442 
z"/>
<path fill="#0D9FD9" opacity="1.000000" stroke="none" 
	d="
M429.936951,501.206116 
	C436.328888,494.469543 442.753357,487.763428 449.101959,480.986206 
	C453.766418,476.006897 457.470001,469.068268 463.184082,466.430511 
	C468.849976,463.814941 476.496399,465.476929 483.274963,465.292236 
	C485.263275,465.238037 487.254303,465.283875 490.549683,465.283875 
	C478.988647,478.470245 468.027771,490.972076 456.727112,503.861481 
	C468.450836,519.599915 480.128265,535.276184 492.491455,551.873108 
	C482.672424,551.873108 473.793823,551.969116 464.922852,551.752319 
	C463.807678,551.725098 462.516327,550.216248 461.673035,549.113586 
	C454.306885,539.481873 447.024231,529.786316 439.650879,520.022400 
	C437.074036,522.321594 434.751587,524.393799 431.876770,526.583984 
	C426.723785,525.048584 427.017731,520.714233 428.394836,518.034058 
	C431.285065,512.408997 432.076508,507.065247 429.936951,501.206116 
z"/>
<path fill="#36328E" opacity="1.000000" stroke="none" 
	d="
M221.653900,524.504395 
	C223.000275,523.329468 225.503738,522.714539 225.714783,521.646545 
	C226.836746,515.968994 230.919220,513.424988 235.841980,511.068604 
	C237.055237,512.077332 237.938904,513.224121 239.223114,514.890625 
	C242.239227,509.763458 245.087448,505.009155 247.850891,500.206024 
	C253.893494,489.703339 259.951843,479.208740 265.866180,468.633911 
	C267.233154,466.189758 268.772369,465.040558 271.718567,465.167816 
	C277.509766,465.417999 283.319366,465.241486 289.987152,465.241486 
	C289.987152,473.623291 289.987152,481.847229 289.504944,490.533264 
	C286.523376,490.268005 284.023987,489.540649 281.122803,488.696350 
	C276.866150,493.604523 272.968414,498.884460 273.551819,506.804779 
	C273.779907,509.901306 271.772400,514.169067 267.192810,514.990234 
	C267.192810,512.334778 267.192810,509.679260 267.192810,505.631500 
	C265.723633,507.629974 264.940125,508.507629 264.365997,509.505737 
	C258.477142,519.743530 252.684296,530.037048 246.731827,540.237549 
	C243.686478,545.456116 233.760254,545.526917 230.725662,540.419983 
	C227.666855,535.272156 224.738586,530.046753 221.653900,524.504395 
z"/>
<path fill="#0F8AC7" opacity="1.000000" stroke="none" 
	d="
M429.888611,500.725159 
	C432.076508,507.065247 431.285065,512.408997 428.394836,518.034058 
	C427.017731,520.714233 426.723785,525.048584 431.662415,526.845459 
	C431.286163,530.925232 430.284119,534.836243 429.937103,538.804565 
	C429.578857,542.901611 429.857483,547.054260 429.857483,551.538086 
	C421.501312,551.538086 413.598328,551.538086 405.222229,551.538086 
	C405.222229,523.040222 405.222229,494.402557 405.222229,465.484253 
	C413.142731,465.484253 421.055725,465.484253 429.840302,465.484253 
	C429.840302,477.100342 429.840302,488.672241 429.888611,500.725159 
z"/>
<path fill="#363F93" opacity="1.000000" stroke="none" 
	d="
M267.108276,515.452820 
	C271.772400,514.169067 273.779907,509.901306 273.551819,506.804779 
	C272.968414,498.884460 276.866150,493.604523 281.122803,488.696350 
	C284.023987,489.540649 286.523376,490.268005 289.420837,490.994812 
	C289.818939,511.083923 289.818939,531.173584 289.818939,551.591064 
	C282.319946,551.591064 275.075470,551.591064 267.023743,551.591064 
	C267.023743,539.720581 267.023743,527.817993 267.108276,515.452820 
z"/>
<path fill="#7E8182" opacity="1.000000" stroke="none" 
	d="
M629.754639,499.723633 
	C631.360413,499.645630 632.523865,499.579651 633.688049,499.560638 
	C641.987122,499.424988 641.987183,499.428009 642.919983,490.976044 
	C644.739929,490.976044 646.610229,490.976044 648.732971,490.976044 
	C648.913269,493.632935 649.089111,496.223907 649.304199,499.393066 
	C653.088013,499.393066 656.656311,499.393066 660.536621,499.393066 
	C660.691711,501.380005 660.802185,502.794952 660.953186,504.729706 
	C657.010559,504.729706 653.412292,504.729706 649.118530,504.729706 
	C649.118530,513.457520 648.705017,521.738770 649.276611,529.951416 
	C649.609253,534.731140 654.002258,535.781860 661.256592,533.352539 
	C661.901062,534.734558 662.564270,536.156860 663.319824,537.777161 
	C658.340576,541.064880 653.474365,541.509888 648.428894,539.181335 
	C643.904358,537.093201 642.549744,532.960083 642.441772,528.460266 
	C642.258850,520.842529 642.391541,513.217224 642.391541,505.245209 
	C635.440002,505.245209 629.053162,505.245209 622.256287,505.245209 
	C622.256287,516.758118 622.256287,528.008118 622.256287,539.664062 
	C619.985535,539.664062 618.107483,539.664062 615.706177,539.664062 
	C615.706177,528.375793 615.706177,517.006165 615.706177,505.376556 
	C613.134888,505.187653 611.027893,505.032867 608.555542,504.851227 
	C608.398438,503.412933 608.244385,502.002808 608.040283,500.134125 
	C610.436890,499.956329 612.513672,499.802246 615.291138,499.596191 
	C615.501953,492.981537 615.855835,485.928955 623.697510,483.494629 
	C628.040466,482.146484 632.523376,482.325867 636.739807,485.374359 
	C636.068481,486.976227 635.452454,488.446106 634.853333,489.875671 
	C624.402405,487.248566 621.186157,489.681274 622.568176,499.401184 
	C624.752991,499.516602 627.032837,499.637024 629.754639,499.723633 
z"/>
<path fill="#7E8182" opacity="1.000000" stroke="none" 
	d="
M707.396423,513.538940 
	C709.777588,519.796265 712.002991,525.698853 714.692993,532.833801 
	C718.435242,522.388367 721.911621,513.105103 725.051086,503.709229 
	C726.256287,500.102386 727.934875,498.240570 732.595459,499.794342 
	C730.752197,504.849945 728.899292,509.898254 727.070740,514.955383 
	C724.467957,522.153809 721.785095,529.325806 719.342773,536.578552 
	C718.469910,539.170654 717.134705,540.941833 714.399963,540.027283 
	C712.710815,539.462402 710.667664,538.115723 710.019287,536.593567 
	C707.023193,529.559631 704.481628,522.333008 701.727600,515.194580 
	C701.040222,513.412842 700.168701,511.702209 698.884277,508.856750 
	C695.224426,518.445801 692.003723,526.924927 688.747314,535.390381 
	C687.822205,537.795288 687.468567,540.364929 683.583313,540.255615 
	C680.015991,540.155334 679.645569,537.861206 678.815674,535.600403 
	C674.479370,523.786865 670.177551,511.960754 665.832458,500.053253 
	C669.926147,498.547150 672.072144,499.407715 673.398804,503.357727 
	C676.518372,512.645935 680.033875,521.801147 683.725891,531.934265 
	C684.672424,530.170715 685.359375,529.182556 685.764343,528.089905 
	C688.828796,519.821167 691.716370,511.483643 694.967712,503.289978 
	C695.614380,501.660309 697.819946,499.298767 698.895630,499.497681 
	C700.628601,499.818146 702.528992,501.716400 703.443298,503.435120 
	C705.069885,506.492828 706.012146,509.914642 707.396423,513.538940 
z"/>
<path fill="#7E8182" opacity="1.000000" stroke="none" 
	d="
M520.292847,491.417175 
	C529.196350,483.437012 544.484070,482.842865 554.547119,490.004333 
	C553.894714,491.579834 553.214661,493.221893 553.104187,493.488708 
	C545.712891,492.909668 539.065125,491.985626 532.421326,492.013031 
	C528.137451,492.030731 524.788025,494.687683 524.179443,499.310822 
	C523.567444,503.959900 526.724182,506.366333 530.513367,507.747070 
	C535.820374,509.680817 541.348572,511.015533 546.630127,513.009216 
	C554.175171,515.857239 557.115112,519.868347 556.853088,526.073730 
	C556.595947,532.162720 552.616150,537.199646 545.748230,539.324829 
	C535.037109,542.639221 525.162842,540.766357 515.833923,533.973816 
	C516.795898,532.074341 517.583618,530.519043 518.487122,528.735168 
	C525.909607,533.423401 533.446777,536.095947 541.980164,534.125183 
	C545.923767,533.214478 549.437073,531.609985 549.958557,527.066650 
	C550.521545,522.161377 547.209534,519.820801 543.170593,518.471985 
	C537.969116,516.734985 532.570618,515.551880 527.447632,513.623535 
	C516.933777,509.665894 514.296204,501.500824 520.292847,491.417175 
z"/>
<path fill="#0F8AC7" opacity="1.000000" stroke="none" 
	d="
M365.164093,535.334351 
	C365.113647,528.896790 367.484253,524.062866 372.257233,520.008728 
	C374.954346,517.717834 376.672485,514.274353 378.982483,511.018799 
	C382.443756,517.681335 385.851990,524.630981 389.035675,531.682007 
	C391.940399,538.115234 394.601746,544.658325 397.701691,551.930298 
	C389.214142,551.930298 381.632019,552.051514 374.062286,551.799622 
	C372.926392,551.761841 371.393097,550.188904 370.825989,548.963867 
	C368.811218,544.611877 367.134979,540.103149 365.164093,535.334351 
z"/>
<path fill="#7E8182" opacity="1.000000" stroke="none" 
	d="
M736.746582,526.727539 
	C738.979065,520.042297 742.675842,517.511475 750.542969,517.167358 
	C754.701721,516.985413 758.869263,517.006653 763.031921,516.902527 
	C763.327454,516.895142 763.615967,516.609924 764.062561,516.371094 
	C764.631287,512.592590 764.172607,508.937012 760.526855,506.843079 
	C753.579407,502.853027 747.066040,505.365204 740.588806,509.059967 
	C739.685181,507.514038 738.865479,506.111664 737.858704,504.389252 
	C745.818542,498.926758 754.044739,497.262848 762.999817,500.779083 
	C768.077942,502.773041 770.530334,507.082184 770.751892,512.114563 
	C771.153076,521.226379 770.865540,530.368469 770.865540,541.191406 
	C767.828491,539.569458 765.764465,538.467163 763.118958,537.054321 
	C757.240112,541.286133 749.888367,542.530151 742.180603,538.417053 
	C737.724365,536.039062 736.070984,532.056885 736.746582,526.727539 
M744.914001,524.304626 
	C742.547485,528.746704 742.980835,532.109375 746.601379,534.045654 
	C751.204956,536.507568 755.902771,536.002930 760.323975,533.384705 
	C764.619385,530.840881 764.742126,526.830994 763.756531,521.194214 
	C757.618896,522.054565 751.553406,522.904785 744.914001,524.304626 
z"/>
<path fill="#7E8182" opacity="1.000000" stroke="none" 
	d="
M812.997559,512.338745 
	C817.804932,501.620941 827.715088,496.834320 837.909729,499.974121 
	C847.423340,502.904175 852.796814,511.708557 851.017151,521.950928 
	C840.513611,521.950928 829.931274,521.950928 818.852051,521.950928 
	C818.764221,527.235413 821.496033,530.438904 825.271606,532.604126 
	C832.372437,536.676453 839.019775,535.040833 845.421387,529.742004 
	C846.651001,531.093750 847.799988,532.356934 848.921204,533.589478 
	C842.483826,541.101868 831.640198,542.834534 822.337585,538.071350 
	C813.630249,533.612976 809.999695,523.878540 812.997559,512.338745 
M843.475830,511.242249 
	C839.751648,505.727081 834.377136,503.654633 828.037598,505.289093 
	C822.388184,506.745636 819.054138,510.913055 818.676575,517.334717 
	C827.343933,517.334717 835.992920,517.334717 845.290344,517.334717 
	C844.738403,515.288879 844.285461,513.610229 843.475830,511.242249 
z"/>
<path fill="#7E8182" opacity="1.000000" stroke="none" 
	d="
M564.614868,510.873901 
	C571.067017,499.173615 584.686523,495.616608 595.584534,502.479492 
	C605.305664,508.601257 607.710815,521.885864 600.908203,531.884583 
	C595.469482,539.878601 584.569641,542.833679 575.112244,538.878235 
	C565.869995,535.012756 561.010864,524.991821 563.344849,514.530701 
	C563.596436,513.403198 564.071777,512.325562 564.614868,510.873901 
M590.255432,533.010437 
	C596.613464,529.056458 599.266907,522.995911 597.645996,516.129395 
	C596.188171,509.953552 591.592285,505.719849 585.667114,505.094452 
	C579.500732,504.443604 573.996704,507.147614 571.382751,512.112122 
	C568.544189,517.503174 569.044373,525.403503 572.845215,529.475830 
	C577.473999,534.435303 583.089478,535.955688 590.255432,533.010437 
z"/>
<path fill="#7E8182" opacity="1.000000" stroke="none" 
	d="
M785.286011,535.743469 
	C785.284180,523.493164 785.284180,511.713196 785.284180,499.577972 
	C787.175781,499.425964 788.762939,499.298431 790.613098,499.149750 
	C791.116333,500.885956 791.557312,502.407013 791.931152,503.696716 
	C796.493713,501.853333 801.054321,500.010742 806.460815,497.826385 
	C806.460815,501.260254 806.460815,503.138580 806.460815,505.002228 
	C794.461670,506.873932 791.873291,509.927979 791.845337,522.105164 
	C791.832092,527.895996 791.843079,533.686890 791.843079,539.809875 
	C788.596924,539.915710 784.894348,541.947632 785.286011,535.743469 
z"/>
<path fill="#FDFEFE" opacity="1.000000" stroke="none" 
	d="
M350.045776,495.998535 
	C352.758148,503.135651 355.362091,509.910248 358.109283,517.057495 
	C351.023529,517.057495 344.442200,517.057495 337.161377,517.057495 
	C340.588715,507.982208 343.881714,499.262665 347.499115,489.684143 
	C348.512634,492.158203 349.224976,493.897125 350.045776,495.998535 
z"/>
<path fill="#FDFEFE" opacity="1.000000" stroke="none" 
	d="
M745.200928,524.029785 
	C751.553406,522.904785 757.618896,522.054565 763.756531,521.194214 
	C764.742126,526.830994 764.619385,530.840881 760.323975,533.384705 
	C755.902771,536.002930 751.204956,536.507568 746.601379,534.045654 
	C742.980835,532.109375 742.547485,528.746704 745.200928,524.029785 
z"/>
<path fill="#FDFEFE" opacity="1.000000" stroke="none" 
	d="
M843.654175,511.586884 
	C844.285461,513.610229 844.738403,515.288879 845.290344,517.334717 
	C835.992920,517.334717 827.343933,517.334717 818.676575,517.334717 
	C819.054138,510.913055 822.388184,506.745636 828.037598,505.289093 
	C834.377136,503.654633 839.751648,505.727081 843.654175,511.586884 
z"/>
<path fill="#FDFEFE" opacity="1.000000" stroke="none" 
	d="
M589.908447,533.161987 
	C583.089478,535.955688 577.473999,534.435303 572.845215,529.475830 
	C569.044373,525.403503 568.544189,517.503174 571.382751,512.112122 
	C573.996704,507.147614 579.500732,504.443604 585.667114,505.094452 
	C591.592285,505.719849 596.188171,509.953552 597.645996,516.129395 
	C599.266907,522.995911 596.613464,529.056458 589.908447,533.161987 
z"/>
</svg>